<svg width="32" height="32" viewBox="0 0 32 32" fill="none" xmlns="http://www.w3.org/2000/svg">
<g clip-path="url(#clip0_203_2147)">
<path d="M4.68669 27.3136C4.29617 26.9231 4.29617 26.29 4.68669 25.8994L25.8999 4.68623C26.2904 4.29571 26.9236 4.29571 27.3141 4.68623C27.7046 5.07675 27.7046 5.70992 27.3141 6.10044L6.10091 27.3136C5.71038 27.7042 5.07722 27.7042 4.68669 27.3136Z" fill="white"/>
<path d="M27.3137 27.3142C26.9232 27.7047 26.29 27.7047 25.8995 27.3142L4.68628 6.10098C4.29576 5.71045 4.29576 5.07729 4.68628 4.68677C5.07681 4.29624 5.70997 4.29624 6.1005 4.68677L27.3137 25.9C27.7042 26.2905 27.7042 26.9237 27.3137 27.3142Z" fill="white"/>
</g>
<defs>
<clipPath id="clip0_203_2147">
<rect width="32" height="32" fill="white"/>
</clipPath>
</defs>
</svg>
