<svg width="20" height="20" viewBox="0 0 20 20" fill="none" xmlns="http://www.w3.org/2000/svg">
<path d="M16.6669 9.16582H18.3335C18.3335 4.89082 15.106 1.66666 10.8252 1.66666V3.33332C14.2102 3.33332 16.6669 5.78582 16.6669 9.16582Z" fill="#DDB156"/>
<path d="M10.8336 6.66666C12.5861 6.66666 13.3336 7.41416 13.3336 9.16666H15.0002C15.0002 6.47916 13.5211 5 10.8336 5V6.66666ZM13.6852 11.2025C13.5251 11.057 13.3147 10.9793 13.0984 10.986C12.8821 10.9927 12.6769 11.0832 12.5261 11.2383L10.5319 13.2892C10.0519 13.1975 9.0869 12.8967 8.09357 11.9058C7.10024 10.9117 6.7994 9.94416 6.71024 9.4675L8.7594 7.4725C8.91475 7.32177 9.00535 7.11651 9.01204 6.90017C9.01872 6.68382 8.94097 6.47336 8.79524 6.31333L5.71607 2.9275C5.57027 2.76696 5.36763 2.66958 5.1512 2.65605C4.93476 2.64251 4.72157 2.71388 4.5569 2.855L2.74857 4.40583C2.60449 4.55043 2.5185 4.74287 2.5069 4.94666C2.4944 5.155 2.25607 10.09 6.08274 13.9183C9.42107 17.2558 13.6027 17.5 14.7544 17.5C14.9227 17.5 15.0261 17.495 15.0536 17.4933C15.2573 17.4819 15.4497 17.3955 15.5936 17.2508L17.1436 15.4417C17.2848 15.2771 17.3563 15.064 17.3429 14.8475C17.3295 14.6311 17.2323 14.4284 17.0719 14.2825L13.6852 11.2025Z" fill="#DDB156"/>
</svg>
