<svg width="115" height="16" viewBox="0 0 115 16" fill="none" xmlns="http://www.w3.org/2000/svg">
<path d="M14.631 6.11934C14.5891 5.99592 14.512 5.88747 14.4092 5.80738C14.3063 5.7273 14.1823 5.67908 14.0524 5.66868L10.2517 5.36668L8.60703 1.72601C8.55465 1.60875 8.46945 1.50916 8.36172 1.43925C8.25399 1.36934 8.12833 1.3321 7.99991 1.33203C7.87148 1.33196 7.74578 1.36906 7.63798 1.43885C7.53017 1.50864 7.44487 1.60814 7.39236 1.72534L5.74769 5.36668L1.94703 5.66868C1.81933 5.67879 1.69725 5.72548 1.5954 5.80316C1.49354 5.88084 1.41622 5.98622 1.37269 6.1067C1.32915 6.22717 1.32125 6.35763 1.34992 6.48248C1.37859 6.60733 1.44263 6.72127 1.53436 6.81068L4.34303 9.54868L3.34969 13.85C3.31953 13.9802 3.3292 14.1165 3.37744 14.2411C3.42568 14.3657 3.51027 14.473 3.62023 14.549C3.73019 14.6249 3.86044 14.6661 3.99408 14.6671C4.12772 14.6681 4.25859 14.629 4.36969 14.5547L7.99969 12.1347L11.6297 14.5547C11.7432 14.6301 11.8772 14.6689 12.0134 14.6659C12.1497 14.6629 12.2818 14.6183 12.392 14.538C12.5021 14.4577 12.585 14.3456 12.6295 14.2167C12.6741 14.0879 12.6781 13.9485 12.641 13.8173L11.4217 9.55068L14.4457 6.82934C14.6437 6.65068 14.7164 6.37201 14.631 6.11934Z" fill="#DDB156"/>
<path d="M38.631 6.11934C38.5891 5.99592 38.512 5.88747 38.4092 5.80738C38.3063 5.7273 38.1823 5.67908 38.0524 5.66868L34.2517 5.36668L32.607 1.72601C32.5546 1.60875 32.4695 1.50916 32.3617 1.43925C32.254 1.36934 32.1283 1.3321 31.9999 1.33203C31.8715 1.33196 31.7458 1.36906 31.638 1.43885C31.5302 1.50864 31.4449 1.60814 31.3924 1.72534L29.7477 5.36668L25.947 5.66868C25.8193 5.67879 25.6973 5.72548 25.5954 5.80316C25.4935 5.88084 25.4162 5.98622 25.3727 6.1067C25.3292 6.22717 25.3213 6.35763 25.3499 6.48248C25.3786 6.60733 25.4426 6.72127 25.5344 6.81068L28.343 9.54868L27.3497 13.85C27.3195 13.9802 27.3292 14.1165 27.3774 14.2411C27.4257 14.3657 27.5103 14.473 27.6202 14.549C27.7302 14.6249 27.8604 14.6661 27.9941 14.6671C28.1277 14.6681 28.2586 14.629 28.3697 14.5547L31.9997 12.1347L35.6297 14.5547C35.7432 14.6301 35.8772 14.6689 36.0134 14.6659C36.1497 14.6629 36.2818 14.6183 36.392 14.538C36.5021 14.4577 36.585 14.3456 36.6295 14.2167C36.6741 14.0879 36.6781 13.9485 36.641 13.8173L35.4217 9.55068L38.4457 6.82934C38.6437 6.65068 38.7164 6.37201 38.631 6.11934Z" fill="#DDB156"/>
<path d="M62.631 6.11934C62.5891 5.99592 62.512 5.88747 62.4092 5.80738C62.3063 5.7273 62.1823 5.67908 62.0524 5.66868L58.2517 5.36668L56.607 1.72601C56.5546 1.60875 56.4695 1.50916 56.3617 1.43925C56.254 1.36934 56.1283 1.3321 55.9999 1.33203C55.8715 1.33196 55.7458 1.36906 55.638 1.43885C55.5302 1.50864 55.4449 1.60814 55.3924 1.72534L53.7477 5.36668L49.947 5.66868C49.8193 5.67879 49.6973 5.72548 49.5954 5.80316C49.4935 5.88084 49.4162 5.98622 49.3727 6.1067C49.3292 6.22717 49.3213 6.35763 49.3499 6.48248C49.3786 6.60733 49.4426 6.72127 49.5344 6.81068L52.343 9.54868L51.3497 13.85C51.3195 13.9802 51.3292 14.1165 51.3774 14.2411C51.4257 14.3657 51.5103 14.473 51.6202 14.549C51.7302 14.6249 51.8604 14.6661 51.9941 14.6671C52.1277 14.6681 52.2586 14.629 52.3697 14.5547L55.9997 12.1347L59.6297 14.5547C59.7432 14.6301 59.8772 14.6689 60.0134 14.6659C60.1497 14.6629 60.2818 14.6183 60.392 14.538C60.5021 14.4577 60.585 14.3456 60.6295 14.2167C60.6741 14.0879 60.6781 13.9485 60.641 13.8173L59.4217 9.55068L62.4457 6.82934C62.6437 6.65068 62.7164 6.37201 62.631 6.11934Z" fill="#DDB156"/>
<path d="M86.631 6.11934C86.5891 5.99592 86.512 5.88747 86.4092 5.80738C86.3063 5.7273 86.1823 5.67908 86.0524 5.66868L82.2517 5.36668L80.607 1.72601C80.5546 1.60875 80.4695 1.50916 80.3617 1.43925C80.254 1.36934 80.1283 1.3321 79.9999 1.33203C79.8715 1.33196 79.7458 1.36906 79.638 1.43885C79.5302 1.50864 79.4449 1.60814 79.3924 1.72534L77.7477 5.36668L73.947 5.66868C73.8193 5.67879 73.6973 5.72548 73.5954 5.80316C73.4935 5.88084 73.4162 5.98622 73.3727 6.1067C73.3292 6.22717 73.3213 6.35763 73.3499 6.48248C73.3786 6.60733 73.4426 6.72127 73.5344 6.81068L76.343 9.54868L75.3497 13.85C75.3195 13.9802 75.3292 14.1165 75.3774 14.2411C75.4257 14.3657 75.5103 14.473 75.6202 14.549C75.7302 14.6249 75.8604 14.6661 75.9941 14.6671C76.1277 14.6681 76.2586 14.629 76.3697 14.5547L79.9997 12.1347L83.6297 14.5547C83.7432 14.6301 83.8772 14.6689 84.0134 14.6659C84.1497 14.6629 84.2818 14.6183 84.392 14.538C84.5021 14.4577 84.585 14.3456 84.6295 14.2167C84.6741 14.0879 84.6781 13.9485 84.641 13.8173L83.4217 9.55068L86.4457 6.82934C86.6437 6.65068 86.7164 6.37201 86.631 6.11934Z" fill="#DDB156"/>
<path d="M110.631 6.11934C110.589 5.99592 110.512 5.88747 110.409 5.80738C110.306 5.7273 110.182 5.67908 110.052 5.66868L106.252 5.36668L104.607 1.72601C104.555 1.60875 104.469 1.50916 104.362 1.43925C104.254 1.36934 104.128 1.3321 104 1.33203C103.871 1.33196 103.746 1.36906 103.638 1.43885C103.53 1.50864 103.445 1.60814 103.392 1.72534L101.748 5.36668L97.947 5.66868C97.8193 5.67879 97.6973 5.72548 97.5954 5.80316C97.4935 5.88084 97.4162 5.98622 97.3727 6.1067C97.3292 6.22717 97.3213 6.35763 97.3499 6.48248C97.3786 6.60733 97.4426 6.72127 97.5344 6.81068L100.343 9.54868L99.3497 13.85C99.3195 13.9802 99.3292 14.1165 99.3774 14.2411C99.4257 14.3657 99.5103 14.473 99.6202 14.549C99.7302 14.6249 99.8604 14.6661 99.9941 14.6671C100.128 14.6681 100.259 14.629 100.37 14.5547L104 12.1347L107.63 14.5547C107.743 14.6301 107.877 14.6689 108.013 14.6659C108.15 14.6629 108.282 14.6183 108.392 14.538C108.502 14.4577 108.585 14.3456 108.63 14.2167C108.674 14.0879 108.678 13.9485 108.641 13.8173L107.422 9.55068L110.446 6.82934C110.644 6.65068 110.716 6.37201 110.631 6.11934Z" fill="#DDB156"/>
</svg>
