<svg width="17" height="17" viewBox="0 0 17 17" fill="none" xmlns="http://www.w3.org/2000/svg">
<path d="M13.8886 7.63819H15.2775C15.2775 4.07569 12.5879 1.38889 9.02051 1.38889V2.77777C11.8413 2.77777 13.8886 4.82152 13.8886 7.63819Z" fill="#19191C"/>
<path d="M9.02765 5.55554C10.4881 5.55554 11.111 6.17846 11.111 7.63887H12.4999C12.4999 5.39929 11.2672 4.16665 9.02765 4.16665V5.55554ZM11.404 9.3354C11.2706 9.21412 11.0952 9.14944 10.915 9.15501C10.7348 9.16058 10.5638 9.23597 10.4381 9.36526L8.77626 11.0743C8.37626 10.9979 7.57209 10.7472 6.74431 9.92151C5.91654 9.09304 5.66584 8.28679 5.59154 7.88957L7.29918 6.22707C7.42863 6.10146 7.50413 5.93042 7.5097 5.75013C7.51528 5.56984 7.45048 5.39446 7.32904 5.2611L4.76306 2.43957C4.64157 2.30579 4.4727 2.22464 4.29234 2.21336C4.11197 2.20208 3.93431 2.26155 3.79709 2.37915L2.29015 3.67151C2.17009 3.79201 2.09843 3.95238 2.08876 4.12221C2.07834 4.29582 1.87973 8.40832 5.06862 11.5986C7.85056 14.3798 11.3353 14.5833 12.295 14.5833C12.4353 14.5833 12.5214 14.5792 12.5443 14.5778C12.7141 14.5683 12.8744 14.4963 12.9943 14.3757L14.286 12.868C14.4037 12.7309 14.4633 12.5533 14.4521 12.3729C14.441 12.1926 14.3599 12.0237 14.2263 11.9021L11.404 9.3354Z" fill="#19191C"/>
</svg>
