<svg width="268" height="55" viewBox="0 0 268 55" fill="none" xmlns="http://www.w3.org/2000/svg">
<path d="M9.43945 31.3516C11.1035 24.9883 12.2754 20.1836 12.9551 16.9375C13.6348 13.6797 14.3438 10.2461 15.082 6.63672C10.0312 6.82422 6.30469 8.51758 3.90234 11.7168C3.1875 12.6777 2.57227 13.7031 2.05664 14.793C1.83398 15.2734 1.5 15.5137 1.05469 15.5137C0.691406 15.5137 0.486328 15.2734 0.439453 14.793C1.40039 12.8125 2.30273 11.3359 3.14648 10.3633C3.99023 9.39063 4.79297 8.61719 5.55469 8.04297C7.99219 6.17969 11.2676 5.17773 15.3809 5.03711L15.4863 4.54492C15.5449 4.31055 15.6797 4.11133 15.8906 3.94727C16.1133 3.77148 16.3066 3.68359 16.4707 3.68359C16.8105 3.68359 17.0332 3.88281 17.1387 4.28125L17.0332 5.03711C20.8066 5.14258 24.082 6.21484 26.8594 8.25391C29.2266 10 31.0254 12.1738 32.2559 14.7754C33.4863 17.3652 34.1016 19.7734 34.1016 22C34.1016 24.9766 33.5391 27.8477 32.4141 30.6133C30.5859 35.1133 27.8555 38.0957 24.2227 39.5605C22.9688 40.0645 21.6152 40.3164 20.1621 40.3164C18.709 40.3164 17.0742 39.3789 15.2578 37.5039C13.8516 36.0742 12.8438 35.1016 12.2344 34.5859C11.625 34.0703 11.0273 33.666 10.4414 33.373C10.2656 34.1348 10.043 35.1309 9.77344 36.3613C9.51562 37.5918 9.24609 38.418 8.96484 38.8398C8.69531 39.2617 8.34375 39.6191 7.91016 39.9121C7.48828 40.2051 6.88477 40.3516 6.09961 40.3516C4.75195 40.3516 3.75 39.9355 3.09375 39.1035C2.44922 38.2715 2.12695 37.3398 2.12695 36.3086C2.12695 35.2656 2.30859 34.416 2.67188 33.7598C3.04688 33.1035 3.50977 32.582 4.06055 32.1953C4.62305 31.7969 5.2207 31.5156 5.85352 31.3516C6.49805 31.1875 7.08398 31.1055 7.61133 31.1055C8.15039 31.1055 8.75977 31.1875 9.43945 31.3516ZM16.752 6.63672C16.2598 9.42578 15.3398 13.4746 13.9922 18.7832C12.6562 24.0918 11.5957 28.4395 10.8105 31.8262C11.9238 32.3418 13.1367 33.2148 14.4492 34.4453C15 34.9609 15.5273 35.4707 16.0312 35.9746C16.5469 36.4668 17.0508 36.918 17.543 37.3281C18.6562 38.2188 19.7344 38.6641 20.7773 38.6641C22.8516 38.6641 24.7793 37.8203 26.5605 36.1328C28.3535 34.4453 29.7539 32.3066 30.7617 29.7168C31.7812 27.1152 32.291 24.5078 32.291 21.8945C32.291 19.2695 31.623 16.7969 30.2871 14.4766C28.9629 12.1445 27.1172 10.2871 24.75 8.9043C22.3945 7.50977 19.7285 6.75391 16.752 6.63672ZM8.13867 32.7578C5.18555 32.7578 3.70898 33.8652 3.70898 36.0801C3.70898 37.1582 4.10156 37.9023 4.88672 38.3125C5.19141 38.4766 5.51953 38.5586 5.87109 38.5586C6.22266 38.5586 6.56836 38.4648 6.9082 38.2773C7.45898 37.9961 7.82227 37.5391 7.99805 36.9062L9.03516 32.8633C8.61328 32.793 8.31445 32.7578 8.13867 32.7578ZM44.4023 21.8242C46.6172 21.8242 47.7246 23.5 47.7246 26.8516C47.7246 29.4648 47.0039 32.2715 45.5625 35.2715C44.5898 37.2871 43.418 38.7402 42.0469 39.6309C41.3438 40.0879 40.6172 40.3164 39.8672 40.3164C38.543 40.3164 37.5938 39.7891 37.0195 38.7344C36.4453 37.6797 36.1582 36.543 36.1582 35.3242C36.1582 33.1445 36.5215 31.0293 37.248 28.9785C37.9863 26.9277 38.9824 25.2227 40.2363 23.8633C41.502 22.5039 42.8906 21.8242 44.4023 21.8242ZM39.6914 27.6426C38.4258 30.1738 37.793 32.6465 37.793 35.0605C37.793 36.7363 38.2559 37.8613 39.1816 38.4355C39.4629 38.6113 39.7852 38.6992 40.1484 38.6992C40.8984 38.6992 41.7363 38.0488 42.6621 36.748C43.5879 35.4473 44.3672 33.8477 45 31.9492C45.6328 30.0391 45.9492 28.4043 45.9492 27.0449C45.9492 25.6738 45.8672 24.8066 45.7031 24.4434C45.5508 24.0801 45.3691 23.8281 45.1582 23.6875C44.959 23.5469 44.6191 23.4766 44.1387 23.4766C43.6699 23.4766 43.1543 23.6641 42.5918 24.0391C41.502 24.7422 40.5352 25.9434 39.6914 27.6426ZM53.5078 40.4395C51.3047 40.4395 50.2031 39.0801 50.2031 36.3613C50.2031 33.1738 50.7656 30.0625 51.8906 27.0273C52.6992 24.8594 53.7422 23.3066 55.0195 22.3691C55.6758 21.8887 56.2969 21.6484 56.8828 21.6484C58.0312 21.6484 58.8164 21.8711 59.2383 22.3164C58.9453 21.4375 58.5645 20.5879 58.0957 19.7676C57.627 18.9355 57.1641 18.0977 56.707 17.2539C55.6055 15.1797 55.0547 13.2168 55.0547 11.3652C55.0547 9.50195 55.5879 7.98438 56.6543 6.8125C57.7207 5.62891 59.0508 5.03711 60.6445 5.03711C61.5352 5.03711 62.4141 5.16602 63.2812 5.42383C64.1484 5.68164 64.8457 5.86914 65.373 5.98633C65.9004 6.10352 66.5332 6.16211 67.2715 6.16211C68.0215 6.16211 68.6133 6.12695 69.0469 6.05664C69.4922 5.97461 69.8555 5.88672 70.1367 5.79297C70.4297 5.6875 70.6758 5.59961 70.875 5.5293C71.0859 5.44727 71.332 5.40625 71.6133 5.40625C72.0469 5.40625 72.2637 5.58789 72.2637 5.95117C72.2637 6.50195 71.8008 6.95312 70.875 7.30469C69.9609 7.64453 69.0059 7.81445 68.0098 7.81445C67.0137 7.81445 66.252 7.75586 65.7246 7.63867C65.1973 7.52148 64.4238 7.33398 63.4043 7.07617C62.3965 6.80664 61.3008 6.67188 60.1172 6.67188C58.9336 6.67188 58.043 7.23438 57.4453 8.35938C56.9883 9.22656 56.7598 10.2285 56.7598 11.3652C56.7598 12.502 56.9062 13.5215 57.1992 14.4238C57.5039 15.3262 58.1309 16.5742 59.0801 18.168C60.627 20.7344 61.4004 22.9492 61.4004 24.8125L61.2246 26.4297V26.5C61.2246 29.4414 60.5156 32.418 59.0977 35.4297C58.1484 37.457 57.0117 38.9043 55.6875 39.7715C55.0078 40.2168 54.2812 40.4395 53.5078 40.4395ZM58.7812 31C59.0273 30.0859 59.2148 29.2188 59.3438 28.3984C59.4844 27.5781 59.5547 26.7578 59.5547 25.9375C59.5547 25.1172 59.3379 24.5078 58.9043 24.1094C58.4824 23.7109 57.9551 23.5117 57.3223 23.5117C56.7012 23.5117 56.1738 23.6992 55.7402 24.0742C55.3066 24.4375 54.7969 25.0879 54.2109 26.0254C53.6367 26.9512 53.0859 28.334 52.5586 30.1738C52.043 32.002 51.7852 33.5605 51.7852 34.8496C51.7852 36.1387 51.8613 36.9941 52.0137 37.416C52.3184 38.248 52.8047 38.6641 53.4727 38.6641C54.1406 38.6641 54.7324 38.4355 55.248 37.9785C55.7754 37.5215 56.2559 36.9297 56.6895 36.2031C57.1348 35.4766 57.5332 34.6562 57.8848 33.7422C58.2363 32.8281 58.5352 31.9141 58.7812 31ZM68.2734 26.6758C69.9844 23.3945 71.8359 21.7539 73.8281 21.7539C74.8711 21.7539 75.6211 22.0645 76.0781 22.6855C76.5352 23.2949 76.7637 24.2031 76.7637 25.4102C76.7637 27.625 76.4473 29.8867 75.8145 32.1953C75.1816 34.4922 74.2324 36.4492 72.9668 38.0664C71.7129 39.6719 70.2305 40.4746 68.5195 40.4746C67.8633 40.4746 67.3359 40.334 66.9375 40.0527C66.5391 39.7715 66.2168 39.2969 65.9707 38.6289C65.373 41.3477 64.8047 44.0488 64.2656 46.7324C63.7383 49.4277 63.1875 51.8652 62.6133 54.0449C62.3789 54.5254 62.0449 54.7656 61.6113 54.7656C61.248 54.7656 61.043 54.5254 60.9961 54.0449C61.7695 51.0098 62.3906 48.2676 62.8594 45.8184C63.3281 43.3691 63.6855 41.4883 63.9316 40.1758C64.1895 38.8633 64.5469 36.9824 65.0039 34.5332C65.4727 32.0723 66.2227 28.2285 67.2539 23.002V22.2109C67.2539 21.9766 67.3594 21.7539 67.5703 21.543C67.793 21.3203 68.0449 21.209 68.3262 21.209C68.6191 21.209 68.8301 21.3203 68.959 21.543C69.0996 21.7656 69.1699 21.9824 69.1699 22.1934C69.1699 22.3926 69.1523 22.5742 69.1172 22.7383C69.082 22.9023 69.041 23.0664 68.9941 23.2305C68.9473 23.3828 68.9004 23.5352 68.8535 23.6875C68.8066 23.8398 68.7773 23.9746 68.7656 24.0918L68.2734 26.6758ZM66.7266 36.0098C66.7266 37.8496 67.4062 38.7695 68.7656 38.7695C70.0312 38.7695 71.1914 37.9844 72.2461 36.4141C73.5938 34.3984 74.4844 31.7148 74.918 28.3633C75.0469 27.4375 75.1113 26.5469 75.1113 25.6914C75.1113 24.1445 74.7305 23.3711 73.9688 23.3711C73.207 23.3711 72.3223 23.9277 71.3145 25.041C69.9082 26.5996 68.7891 28.4453 67.957 30.5781C67.1367 32.7109 66.7266 34.5215 66.7266 36.0098ZM86.9062 21.8242C89.1211 21.8242 90.2285 23.5 90.2285 26.8516C90.2285 29.4648 89.5078 32.2715 88.0664 35.2715C87.0938 37.2871 85.9219 38.7402 84.5508 39.6309C83.8477 40.0879 83.1211 40.3164 82.3711 40.3164C81.0469 40.3164 80.0977 39.7891 79.5234 38.7344C78.9492 37.6797 78.6621 36.543 78.6621 35.3242C78.6621 33.1445 79.0254 31.0293 79.752 28.9785C80.4902 26.9277 81.4863 25.2227 82.7402 23.8633C84.0059 22.5039 85.3945 21.8242 86.9062 21.8242ZM82.1953 27.6426C80.9297 30.1738 80.2969 32.6465 80.2969 35.0605C80.2969 36.7363 80.7598 37.8613 81.6855 38.4355C81.9668 38.6113 82.2891 38.6992 82.6523 38.6992C83.4023 38.6992 84.2402 38.0488 85.166 36.748C86.0918 35.4473 86.8711 33.8477 87.5039 31.9492C88.1367 30.0391 88.4531 28.4043 88.4531 27.0449C88.4531 25.6738 88.3711 24.8066 88.207 24.4434C88.0547 24.0801 87.873 23.8281 87.6621 23.6875C87.4629 23.5469 87.123 23.4766 86.6426 23.4766C86.1738 23.4766 85.6582 23.6641 85.0957 24.0391C84.0059 24.7422 83.0391 25.9434 82.1953 27.6426ZM118.512 25.7617C118.512 24.6016 118.195 24.0215 117.562 24.0215C116.719 24.0215 115.107 26.4414 112.729 31.2812C111.65 33.4727 110.895 35.1309 110.461 36.2559C110.039 37.3691 109.723 38.1543 109.512 38.6113C109.301 39.0684 109.09 39.4141 108.879 39.6484C108.68 39.8828 108.451 40 108.193 40C107.947 40 107.801 39.9414 107.754 39.8242C107.707 39.6953 107.684 39.4727 107.684 39.1562C107.684 38.8281 108.152 36.0625 109.09 30.8594C110.039 25.6445 110.584 22.9023 110.725 22.6328C110.877 22.3633 111.012 22.1934 111.129 22.123C111.246 22.041 111.457 22 111.762 22C112.066 22 112.301 22.1172 112.465 22.3516C112.641 22.5859 112.729 22.7969 112.729 22.9844C112.729 23.1602 112.705 23.3359 112.658 23.5117C112.576 23.8281 112.453 24.2207 112.289 24.6895C111.727 26.2949 111.188 28.5684 110.672 31.5098L110.303 33.6367C110.572 33.0742 110.877 32.4004 111.217 31.6152C111.557 30.8184 112.061 29.6816 112.729 28.2051C113.396 26.7285 114.141 25.4102 114.961 24.25C116.016 22.7266 117 21.9648 117.914 21.9648C119.52 21.9648 120.322 23.2598 120.322 25.8496C120.322 26.8223 120.182 28.0352 119.9 29.4883C119.631 30.9414 119.326 32.5293 118.986 34.252C118.658 35.9746 118.477 37.3984 118.441 38.5234L118.23 39.4902C118.23 39.748 118.189 39.9297 118.107 40.0352C118.037 40.1523 117.809 40.2109 117.422 40.2109C117.047 40.2109 116.771 40.1406 116.596 40C116.432 39.8594 116.379 39.6074 116.438 39.2441L118.195 28.7324C118.406 27.4316 118.512 26.4414 118.512 25.7617ZM131.625 21.8242C133.84 21.8242 134.947 23.5 134.947 26.8516C134.947 29.4648 134.227 32.2715 132.785 35.2715C131.812 37.2871 130.641 38.7402 129.27 39.6309C128.566 40.0879 127.84 40.3164 127.09 40.3164C125.766 40.3164 124.816 39.7891 124.242 38.7344C123.668 37.6797 123.381 36.543 123.381 35.3242C123.381 33.1445 123.744 31.0293 124.471 28.9785C125.209 26.9277 126.205 25.2227 127.459 23.8633C128.725 22.5039 130.113 21.8242 131.625 21.8242ZM126.914 27.6426C125.648 30.1738 125.016 32.6465 125.016 35.0605C125.016 36.7363 125.479 37.8613 126.404 38.4355C126.686 38.6113 127.008 38.6992 127.371 38.6992C128.121 38.6992 128.959 38.0488 129.885 36.748C130.811 35.4473 131.59 33.8477 132.223 31.9492C132.855 30.0391 133.172 28.4043 133.172 27.0449C133.172 25.6738 133.09 24.8066 132.926 24.4434C132.773 24.0801 132.592 23.8281 132.381 23.6875C132.182 23.5469 131.842 23.4766 131.361 23.4766C130.893 23.4766 130.377 23.6641 129.814 24.0391C128.725 24.7422 127.758 25.9434 126.914 27.6426ZM148.834 30.5605C148.494 31.0879 148.254 31.498 148.113 31.791V31.8262C148.078 32.084 147.984 32.2891 147.832 32.4414C147.34 34.8789 146.918 37.1816 146.566 39.3496C146.508 39.6426 146.373 39.8828 146.162 40.0703C145.951 40.2578 145.752 40.3516 145.564 40.3516C145.178 40.3516 144.961 40.0996 144.914 39.5957L146.25 32.2305C146.168 32.1016 146.098 31.9668 146.039 31.8262C145.992 31.6855 145.939 31.5449 145.881 31.4043C145.354 32.166 144.85 32.9336 144.369 33.707C143.889 34.4805 143.391 35.2363 142.875 35.9746C141.668 37.6973 140.414 39.0156 139.113 39.9297C138.621 40.293 138.123 40.4746 137.619 40.4746C136.705 40.4746 135.932 40.0527 135.299 39.209C134.654 38.3652 134.332 37.4629 134.332 36.502C134.402 36.2676 134.543 36.0684 134.754 35.9043C134.953 35.7285 135.146 35.6406 135.334 35.6406C135.521 35.6406 135.668 35.7285 135.773 35.9043C135.867 36.0684 136.002 36.4902 136.178 37.1699C136.447 38.1895 136.951 38.6992 137.689 38.6992C138.885 38.6992 140.238 37.5391 141.75 35.2188C142.184 34.5742 142.828 33.5488 143.684 32.1426C144.551 30.7246 145.09 29.9102 145.301 29.6992C145.078 28.9609 144.855 28.2051 144.633 27.4316C143.789 24.584 142.828 23.1602 141.75 23.1602C140.941 23.1602 140.244 23.5527 139.658 24.3379C139.576 24.4551 139.418 24.5137 139.184 24.5137C138.75 24.5137 138.533 24.3145 138.533 23.916C138.533 23.3066 138.92 22.7676 139.693 22.2988C140.467 21.8301 141.182 21.5957 141.838 21.5957C143.15 21.5957 144.064 22.2227 144.58 23.4766C144.838 24.1211 145.201 25.1934 145.67 26.6934C146.139 28.1816 146.473 29.207 146.672 29.7695C147.211 26.9219 147.574 25.1172 147.762 24.3555C147.961 23.582 148.09 22.9434 148.148 22.4395C148.219 22.2051 148.354 22 148.553 21.8242C148.764 21.6484 148.98 21.5605 149.203 21.5605C149.484 21.5605 149.684 21.7656 149.801 22.1758C149.801 22.668 149.73 23.1367 149.59 23.582C149.449 24.0273 149.279 24.8008 149.08 25.9023C148.893 27.0039 148.729 27.8887 148.588 28.5566C150.486 26.002 152.279 24.0977 153.967 22.8438C154.939 22.1172 155.713 21.7539 156.287 21.7539C156.873 21.7539 157.412 22.0586 157.904 22.668C158.408 23.2656 158.66 23.7812 158.66 24.2148C158.66 24.6367 158.561 24.9531 158.361 25.1641C158.174 25.3633 157.957 25.4629 157.711 25.4629C157.465 25.4629 157.266 25.3574 157.113 25.1465C156.973 24.9355 156.844 24.707 156.727 24.4609C156.621 24.2031 156.516 23.9688 156.41 23.7578C156.316 23.5469 156.193 23.4414 156.041 23.4414C155.889 23.4414 155.596 23.5645 155.162 23.8105C154.729 24.0449 153.926 24.7656 152.754 25.9727C151.582 27.168 150.744 28.0645 150.24 28.6621C150.287 30.8887 150.633 33.0039 151.277 35.0078C151.758 36.4492 152.414 37.4922 153.246 38.1367C153.668 38.4648 154.125 38.6289 154.617 38.6289C155.602 38.6289 156.639 37.9199 157.729 36.502C157.963 36.3145 158.203 36.2207 158.449 36.2207C158.883 36.2207 159.1 36.4141 159.1 36.8008C159.1 37.4336 158.596 38.1777 157.588 39.0332C156.58 39.8887 155.672 40.3164 154.863 40.3164C153.469 40.3164 152.309 39.6719 151.383 38.3828C150.152 36.6719 149.303 34.0645 148.834 30.5605ZM161.016 40C159.645 40 158.959 39.1387 158.959 37.416C158.959 35.6934 159.598 33.584 160.875 31.0879C162.164 28.5801 163.676 26.418 165.41 24.6016C167.145 22.7734 168.557 21.8594 169.646 21.8594C170.748 21.8594 171.375 22.3398 171.527 23.3008C171.574 23.5938 171.609 23.9043 171.633 24.2324C171.738 24.1621 171.867 24.127 172.02 24.127C172.57 24.127 172.846 24.3906 172.846 24.918V25.0586C172.846 25.0938 172.699 25.6211 172.406 26.6406C172.113 27.6602 171.779 29.3594 171.404 31.7383C171.029 34.1172 170.842 36.1504 170.842 37.8379C170.947 37.9082 171.07 37.9902 171.211 38.084C171.352 38.166 171.527 38.3008 171.738 38.4883C171.949 38.6641 172.055 38.875 172.055 39.1211C172.055 39.3672 171.979 39.5898 171.826 39.7891C171.674 39.9766 171.457 40.0703 171.176 40.0703C170.602 40.0703 170.08 39.7773 169.611 39.1914C169.154 38.6055 168.926 37.9727 168.926 37.293C168.926 35.8281 169.324 33.3086 170.121 29.7344C169.125 31.8203 167.836 33.8301 166.254 35.7637C164.672 37.6973 163.576 38.8867 162.967 39.332C162.369 39.7773 161.719 40 161.016 40ZM160.752 37.4863C160.752 37.9199 160.934 38.1367 161.297 38.1367C161.555 38.1367 161.771 38.0488 161.947 37.873C164.373 35.7871 166.547 32.8984 168.469 29.207C169.559 27.0977 170.133 25.8848 170.191 25.5684C170.262 25.252 170.297 24.9824 170.297 24.7598C170.297 24.5371 170.238 24.3262 170.121 24.127C170.004 23.9277 169.84 23.8281 169.629 23.8281C169.418 23.8281 169.107 23.9395 168.697 24.1621C167.795 24.6543 166.682 25.7031 165.357 27.3086C164.045 28.9141 162.949 30.6602 162.07 32.5469C161.191 34.4336 160.752 36.0801 160.752 37.4863ZM174.516 36.6953C174.516 38.1602 175.213 38.8926 176.607 38.8926C177.686 38.8926 178.746 38.3535 179.789 37.2754C180.832 36.1855 181.758 34.8262 182.566 33.1973C183.375 31.5684 183.938 30.2207 184.254 29.1543C184.57 28.0762 184.887 27.0273 185.203 26.0078C185.52 24.9883 185.877 24.0566 186.275 23.2129C186.686 22.3574 187.107 21.9297 187.541 21.9297C187.975 21.9297 188.191 22.1582 188.191 22.6152C188.191 22.9785 187.963 23.8398 187.506 25.1992C187.049 26.5469 186.633 28.2578 186.258 30.332C185.895 32.3945 185.713 34.5391 185.713 36.7656C185.713 37.9492 185.953 38.6055 186.434 38.7344C186.551 38.7578 186.691 38.7695 186.855 38.7695C187.031 38.7695 187.195 38.752 187.348 38.7168C187.512 38.6816 187.67 38.623 187.822 38.541C187.975 38.4473 188.145 38.3242 188.332 38.1719C188.52 38.0078 188.748 37.8145 189.018 37.5918C189.299 37.3691 189.545 37.2578 189.756 37.2578C190.201 37.2578 190.424 37.4863 190.424 37.9434C190.424 38.4004 189.967 38.9102 189.053 39.4727C188.15 40.0352 187.318 40.3164 186.557 40.3164C185.01 40.3164 184.236 38.6523 184.236 35.3242C184.236 34.5508 184.307 33.6602 184.447 32.6523C183.58 34.8789 182.385 36.7363 180.861 38.2246C179.35 39.7012 177.844 40.4395 176.344 40.4395C175.465 40.4395 174.826 40.2812 174.428 39.9648C173.807 39.4492 173.344 38.6934 173.039 37.6973C172.992 37.5801 172.969 37.4277 172.969 37.2402C172.969 37.041 173.068 36.8359 173.268 36.625C173.455 36.4023 173.672 36.291 173.918 36.291C174.152 36.291 174.352 36.4258 174.516 36.6953ZM200.426 21.8242C202.641 21.8242 203.748 23.5 203.748 26.8516C203.748 29.4648 203.027 32.2715 201.586 35.2715C200.613 37.2871 199.441 38.7402 198.07 39.6309C197.367 40.0879 196.641 40.3164 195.891 40.3164C194.566 40.3164 193.617 39.7891 193.043 38.7344C192.469 37.6797 192.182 36.543 192.182 35.3242C192.182 33.1445 192.545 31.0293 193.271 28.9785C194.01 26.9277 195.006 25.2227 196.26 23.8633C197.525 22.5039 198.914 21.8242 200.426 21.8242ZM195.715 27.6426C194.449 30.1738 193.816 32.6465 193.816 35.0605C193.816 36.7363 194.279 37.8613 195.205 38.4355C195.486 38.6113 195.809 38.6992 196.172 38.6992C196.922 38.6992 197.76 38.0488 198.686 36.748C199.611 35.4473 200.391 33.8477 201.023 31.9492C201.656 30.0391 201.973 28.4043 201.973 27.0449C201.973 25.6738 201.891 24.8066 201.727 24.4434C201.574 24.0801 201.393 23.8281 201.182 23.6875C200.982 23.5469 200.643 23.4766 200.162 23.4766C199.693 23.4766 199.178 23.6641 198.615 24.0391C197.525 24.7422 196.559 25.9434 195.715 27.6426ZM215.262 5.10742C216.914 5.10742 217.74 6.12109 217.74 8.14844C217.74 10.668 216.627 13.5508 214.4 16.7969C213.779 17.7109 212.906 18.9707 211.781 20.5762C210.668 22.1699 209.801 23.6523 209.18 25.0234C209.074 25.2695 208.904 25.4512 208.67 25.5684L208.564 26.2539C210.85 23.2773 212.947 21.7891 214.857 21.7891C215.666 21.7891 216.24 22.3105 216.58 23.3535C216.803 24.0449 216.914 24.8125 216.914 25.6562C216.914 27.2852 216.557 29.2715 215.842 31.6152C215.127 33.959 214.219 35.9219 213.117 37.5039C211.805 39.4023 210.434 40.3516 209.004 40.3516C208.254 40.3516 207.609 39.8125 207.07 38.7344C206.531 37.6445 206.262 36.3789 206.262 34.9375C206.262 33.4844 206.309 32.3066 206.402 31.4043C206.039 31.3574 205.857 31.1523 205.857 30.7891C205.857 30.6602 205.881 30.5254 205.928 30.3848L206.648 29.1367C207.141 25.5273 208.201 20.6172 209.83 14.4062C210.92 10.3281 212.25 7.49219 213.82 5.89844C214.324 5.37109 214.805 5.10742 215.262 5.10742ZM207.879 33.5137C207.879 36.9004 208.371 38.5938 209.355 38.5938C210.27 38.5938 211.172 37.8262 212.062 36.291C212.965 34.7559 213.709 32.9277 214.295 30.8066C214.893 28.6738 215.191 27.1094 215.191 26.1133C215.191 25.1055 215.133 24.4668 215.016 24.1973C214.898 23.9277 214.594 23.793 214.102 23.793C213.176 23.793 212.121 24.4375 210.938 25.7266C210.152 26.582 209.203 27.9062 208.09 29.6992C207.949 31.0703 207.879 32.3418 207.879 33.5137ZM213.451 9.16797C212.01 12.0156 210.668 16.2109 209.426 21.7539C209.812 21.0977 210.24 20.4121 210.709 19.6973C211.189 18.9824 211.852 17.9805 212.695 16.6914C214.887 13.293 215.982 10.668 215.982 8.81641C215.982 8.24219 215.947 7.80273 215.877 7.49805C215.807 7.18164 215.625 7.02344 215.332 7.02344C214.793 7.02344 214.166 7.73828 213.451 9.16797ZM219.34 40C217.969 40 217.283 39.1387 217.283 37.416C217.283 35.6934 217.922 33.584 219.199 31.0879C220.488 28.5801 222 26.418 223.734 24.6016C225.469 22.7734 226.881 21.8594 227.971 21.8594C229.072 21.8594 229.699 22.3398 229.852 23.3008C229.898 23.5938 229.934 23.9043 229.957 24.2324C230.062 24.1621 230.191 24.127 230.344 24.127C230.895 24.127 231.17 24.3906 231.17 24.918V25.0586C231.17 25.0938 231.023 25.6211 230.73 26.6406C230.438 27.6602 230.104 29.3594 229.729 31.7383C229.354 34.1172 229.166 36.1504 229.166 37.8379C229.271 37.9082 229.395 37.9902 229.535 38.084C229.676 38.166 229.852 38.3008 230.062 38.4883C230.273 38.6641 230.379 38.875 230.379 39.1211C230.379 39.3672 230.303 39.5898 230.15 39.7891C229.998 39.9766 229.781 40.0703 229.5 40.0703C228.926 40.0703 228.404 39.7773 227.936 39.1914C227.479 38.6055 227.25 37.9727 227.25 37.293C227.25 35.8281 227.648 33.3086 228.445 29.7344C227.449 31.8203 226.16 33.8301 224.578 35.7637C222.996 37.6973 221.9 38.8867 221.291 39.332C220.693 39.7773 220.043 40 219.34 40ZM219.076 37.4863C219.076 37.9199 219.258 38.1367 219.621 38.1367C219.879 38.1367 220.096 38.0488 220.271 37.873C222.697 35.7871 224.871 32.8984 226.793 29.207C227.883 27.0977 228.457 25.8848 228.516 25.5684C228.586 25.252 228.621 24.9824 228.621 24.7598C228.621 24.5371 228.562 24.3262 228.445 24.127C228.328 23.9277 228.164 23.8281 227.953 23.8281C227.742 23.8281 227.432 23.9395 227.021 24.1621C226.119 24.6543 225.006 25.7031 223.682 27.3086C222.369 28.9141 221.273 30.6602 220.395 32.5469C219.516 34.4336 219.076 36.0801 219.076 37.4863ZM236.373 40.5449C235.963 40.5449 235.758 40.3047 235.758 39.8242C235.758 39.5664 235.84 39.3379 236.004 39.1387C236.215 38.6113 236.438 37.832 236.672 36.8008C236.906 35.7695 237.088 35.0137 237.217 34.5332C237.346 34.0527 237.469 33.4434 237.586 32.7051L237.973 30.3848C238.336 28.2637 238.641 26.8223 238.887 26.0605C239.402 24.5254 240 23.7578 240.68 23.7578C240.926 23.7578 241.119 23.916 241.26 24.2324L241.734 25.4629C241.734 25.9785 241.559 26.3594 241.207 26.6055C241.09 26.6758 240.955 26.7109 240.803 26.7109C240.662 26.7109 240.539 26.6406 240.434 26.5C239.871 28.668 239.531 30.1562 239.414 30.9648C239.145 32.8281 238.934 34.0293 238.781 34.5684C238.641 35.1074 238.441 35.8809 238.184 36.8887C237.551 39.3262 236.947 40.5449 236.373 40.5449ZM241.436 22.8262C239.01 22.8262 236.795 23.1602 234.791 23.8281C234.732 23.8516 234.68 23.8633 234.633 23.8633H234.492C234.199 23.8633 233.953 23.7812 233.754 23.6172C233.555 23.4414 233.455 23.2656 233.455 23.0898C233.455 22.9023 233.537 22.7559 233.701 22.6504C235.705 21.7832 238.225 21.3496 241.26 21.3496C242.467 21.3496 243.533 21.4082 244.459 21.5254C245.385 21.6309 246.094 21.707 246.586 21.7539C247.09 21.8008 247.389 21.8887 247.482 22.0176C247.588 22.1465 247.641 22.3105 247.641 22.5098C247.641 22.709 247.529 22.9141 247.307 23.125C247.084 23.3359 246.768 23.4414 246.357 23.4414C245.959 23.4414 245.279 23.3418 244.318 23.1426C243.369 22.9316 242.408 22.8262 241.436 22.8262ZM249.715 40.5449C247.652 40.5449 246.621 39.1387 246.621 36.3262C246.621 35.166 246.768 33.9121 247.061 32.5645C247.365 31.2051 247.588 30.168 247.729 29.4531L249.135 22.6152C249.229 22.3926 249.387 22.2227 249.609 22.1055C249.844 21.9883 250.043 21.9297 250.207 21.9297C250.371 21.9297 250.535 22.041 250.699 22.2637C250.875 22.4746 250.963 22.6973 250.963 22.9316L249.803 27.4492C249.451 28.9727 249.082 30.543 248.695 32.1602C248.32 33.7656 248.133 35.084 248.133 36.1152C248.133 37.1465 248.273 37.8672 248.555 38.2773C248.848 38.6875 249.316 38.8926 249.961 38.8926C251.051 38.8926 251.9 38.5293 252.51 37.8027C253.131 37.0645 253.576 36.1973 253.846 35.2012C254.115 34.2051 254.25 33.2852 254.25 32.4414C254.25 30.3789 253.746 29.3477 252.738 29.3477C252.105 29.3477 251.52 29.8633 250.98 30.8945C250.641 31.5391 250.383 31.9609 250.207 32.1602C250.043 32.3477 249.879 32.4414 249.715 32.4414C249.281 32.4414 249.064 32.2363 249.064 31.8262C249.064 31.5801 249.316 31.0703 249.82 30.2969C250.336 29.5117 250.734 28.9668 251.016 28.6621C251.648 27.9941 252.27 27.6602 252.879 27.6602C253.91 27.6602 254.66 28.1406 255.129 29.1016C255.598 30.0625 255.832 31.1523 255.832 32.3711C255.832 34.6562 255.246 36.5898 254.074 38.1719C252.902 39.7539 251.449 40.5449 249.715 40.5449ZM266.713 0.396484C267.018 0.396484 267.223 0.601562 267.328 1.01172C267.293 1.97266 267.141 3.25 266.871 4.84375C266.602 6.4375 266.326 8.45898 266.045 10.9082C265.764 13.3457 265.225 16.6738 264.428 20.8926C263.631 25.1113 262.734 29.3184 261.738 33.5137C261.516 33.9941 261.182 34.2344 260.736 34.2344C260.373 34.2344 260.168 33.9941 260.121 33.5137C262.301 24.2324 263.824 15.8594 264.691 8.39453C264.844 7.1875 265.031 5.99805 265.254 4.82617C265.477 3.6543 265.617 2.46484 265.676 1.25781C265.746 1.02344 265.881 0.824219 266.08 0.660156C266.279 0.484375 266.49 0.396484 266.713 0.396484ZM259.559 40.8262C259.078 40.6504 258.838 40.3047 258.838 39.7891C258.838 39.2617 259.049 38.8223 259.471 38.4707C259.904 38.1191 260.32 37.9434 260.719 37.9434C261.129 37.9434 261.439 38.0781 261.65 38.3477C261.861 38.6172 261.967 38.9629 261.967 39.3848C261.967 39.7949 261.797 40.293 261.457 40.8789C261.129 41.4648 260.695 41.7578 260.156 41.7578C259.957 41.7578 259.799 41.6934 259.682 41.5645C259.564 41.4473 259.506 41.3125 259.506 41.1602C259.506 41.0195 259.523 40.9082 259.559 40.8262Z" fill="white"/>
</svg>
